# Blender v2.93.6 OBJ File: ''
# www.blender.org
mtllib cornellBox.mtl
o Back_Plane
v 1.500000 -1.000000 4.077930
v -1.500000 -1.000000 4.077930
v 1.500000 1.000000 4.077930
v -1.500000 1.000000 4.077930
vt 1.000000 0.000000
vt 0.000000 1.000000
vt 0.000000 0.000000
vt 1.000000 1.000000
vn 0.0000 0.0000 -1.0000
usemtl None
s off
f 2/1/1 3/2/1 1/3/1
f 2/1/1 4/4/1 3/2/1
o Bottom_Plane.001
v -1.500000 -1.000000 4.077928
v 1.500000 -1.000000 4.077928
v -1.500000 -1.000000 -1.922073
v 1.500000 -1.000000 -1.922073
vt 1.000000 0.000000
vt 0.000000 1.000000
vt 0.000000 0.000000
vt 1.000000 1.000000
vn 0.0000 1.0000 0.0000
usemtl None
s off
f 6/5/2 7/6/2 5/7/2
f 6/5/2 8/8/2 7/6/2
o Left_Plane.002
v -1.500000 -1.000000 4.077928
v -1.500000 -1.000000 -1.922073
v -1.500000 1.000000 4.077928
v -1.500000 1.000000 -1.922073
vt 1.000000 0.000000
vt 0.000000 1.000000
vt 0.000000 0.000000
vt 1.000000 1.000000
vn 1.0000 0.0000 -0.0000
usemtl None
s off
f 10/9/3 11/10/3 9/11/3
f 10/9/3 12/12/3 11/10/3
o Right_Plane.003
v 1.500000 1.000000 4.077928
v 1.500000 1.000000 -1.922073
v 1.500000 -1.000000 4.077928
v 1.500000 -1.000000 -1.922073
vt 1.000000 0.000000
vt 0.000000 1.000000
vt 0.000000 0.000000
vt 1.000000 1.000000
vn -1.0000 0.0000 0.0000
usemtl None
s off
f 14/13/4 15/14/4 13/15/4
f 14/13/4 16/16/4 15/14/4
o Top_Plane.004
v 1.500000 1.000000 4.077928
v -1.500000 1.000000 4.077928
v 1.500000 1.000000 -1.922073
v -1.500000 1.000000 -1.922073
vt 1.000000 0.000000
vt 0.000000 1.000000
vt 0.000000 0.000000
vt 1.000000 1.000000
vn -0.0000 -1.0000 0.0000
usemtl None
s off
f 18/17/5 19/18/5 17/19/5
f 18/17/5 20/20/5 19/18/5
o LeftCube_Cube.001
v -0.200000 -1.000000 2.537383
v -0.200000 -0.200000 2.537383
v -0.200000 -1.000000 2.137383
v -0.200000 -0.200000 2.137383
v 0.200000 -1.000000 2.537383
v 0.200000 -0.200000 2.537383
v 0.200000 -1.000000 2.137383
v 0.200000 -0.200000 2.137383
vt 0.625000 0.000000
vt 0.375000 0.250000
vt 0.375000 0.000000
vt 0.625000 0.250000
vt 0.375000 0.500000
vt 0.625000 0.500000
vt 0.375000 0.750000
vt 0.625000 0.750000
vt 0.375000 1.000000
vt 0.125000 0.750000
vt 0.125000 0.500000
vt 0.875000 0.500000
vt 0.625000 1.000000
vt 0.875000 0.750000
vn -1.0000 0.0000 0.0000
vn 0.0000 0.0000 -1.0000
vn 1.0000 0.0000 0.0000
vn 0.0000 0.0000 1.0000
vn 0.0000 -1.0000 0.0000
vn 0.0000 1.0000 0.0000
usemtl None
s off
f 22/21/6 23/22/6 21/23/6
f 24/24/7 27/25/7 23/22/7
f 28/26/8 25/27/8 27/25/8
f 26/28/9 21/29/9 25/27/9
f 27/25/10 21/30/10 23/31/10
f 24/32/11 26/28/11 28/26/11
f 22/21/6 24/24/6 23/22/6
f 24/24/7 28/26/7 27/25/7
f 28/26/8 26/28/8 25/27/8
f 26/28/9 22/33/9 21/29/9
f 27/25/10 25/27/10 21/30/10
f 24/32/11 22/34/11 26/28/11
